Coordinates
version=1
nRows=7
nColumns=42
inDegrees=yes

Units are S.I. units (second, meters, Newtons, ...)
If the header above contains a line with 'inDegrees', this indicates whether rotational values are in degrees (yes) or radians (no).

endheader
time	pelvis_tilt	pelvis_list	pelvis_rotation	pelvis_tx	pelvis_ty	pelvis_tz	hip_flexion_r	hip_adduction_r	hip_rotation_r	knee_angle_r	knee_adduction_r	knee_angle_r_beta	ankle_angle_r	subtalar_angle_r	mtp_angle_r	hip_flexion_l	hip_adduction_l	hip_rotation_l	knee_angle_l	knee_adduction_l	knee_angle_l_beta	ankle_angle_l	subtalar_angle_l	mtp_angle_l	lumbar_extension	lumbar_bending	lumbar_rotation	arm_flex_r	arm_add_r	arm_rot_r	elbow_flex_r	pro_sup_r	wrist_flex_r	wrist_dev_r	arm_flex_l	arm_add_l	arm_rot_l	elbow_flex_l	pro_sup_l	wrist_flex_l	wrist_dev_l
      0.73000000	     12.17211117	      2.38570748	      1.21650482	     -1.49429424	      0.90770371	      0.28494083	    -18.06270244	     -1.38085157	    -38.34919358	     21.86962335	    -11.02522609	      0.38169693	     37.53474344	     33.08824603	     -9.52789190	     20.61752220	     -0.30578824	    -31.19537471	     25.40296040	    -12.79312817	      0.44336530	     13.37379885	     28.17901444	     -9.52789190	    -43.32092155	     -1.18775672	     -1.84147676	     13.86102900	    -13.12037799	     -1.14948317	     40.48259535	     90.00000001	      0.00000000	      0.00000000	     -3.67839726	     -8.88695722	      6.52303935	     43.71432579	     90.00000001	      0.00000000	      0.00000000
      0.74000000	     12.44340242	      2.37817032	      1.36228823	     -1.48596386	      0.90720909	      0.28357323	    -19.31888680	     -1.33104620	    -38.38579046	     21.34690981	    -10.73434166	      0.37257386	     37.32315011	     33.17681500	     -9.49817900	     20.21508872	     -0.22884520	    -31.16662331	     25.97520472	    -12.99085190	      0.45335285	     12.11359332	     27.99596182	     -9.49817900	    -43.46682232	     -1.33467190	     -1.94834862	     13.54687855	    -13.00295642	     -1.03543163	     40.43381766	     90.00000001	      0.00000000	      0.00000000	     -3.68690759	     -8.99062195	      6.60498939	     43.60874549	     90.00000001	      0.00000000	      0.00000000
      0.75000000	     12.67627083	      2.40038057	      1.54752843	     -1.47758691	      0.90685345	      0.28208127	    -20.49848652	     -1.34584914	    -38.41744101	     20.94407818	    -10.39672229	      0.36554312	     37.01030255	     33.20584282	     -9.47821637	     19.90334758	     -0.11674113	    -31.00632032	     26.71565728	    -13.20824056	      0.46627618	     11.08476443	     27.83848926	     -9.47821637	    -43.57475477	     -1.49704526	     -2.06913268	     13.21368193	    -12.84786022	     -0.99966866	     40.32150375	     90.00000001	      0.00000000	      0.00000000	     -3.66372406	     -9.09959466	      6.68538717	     43.52191783	     90.00000001	      0.00000000	      0.00000000
      0.76000000	     12.77119864	      2.49680704	      1.61943245	     -1.46925032	      0.90649669	      0.28060054	    -21.22667345	     -1.44696423	    -38.36289267	     20.93528078	    -10.53061642	      0.36538958	     36.87262751	     33.22375481	     -9.47406680	     19.68014962	      0.17718538	    -30.74452678	     27.30762975	    -13.53803828	      0.47660805	     10.74878700	     27.84121366	     -9.47406680	    -43.53802056	     -1.79121538	     -2.07897420	     12.75553971	    -12.66480952	     -0.97049792	     40.15575806	     90.00000001	      0.00000000	      0.00000000	     -3.67920497	     -9.11956212	      6.70584609	     43.47597068	     90.00000001	      0.00000000	      0.00000000
      0.77000000	     13.24642029	      2.56576878	      1.97342532	     -1.46064610	      0.90708971	      0.27888569	    -22.97139253	     -1.34789037	    -38.31430494	     19.99796168	     -9.90900877	      0.34903027	     35.81238333	     33.26310113	     -9.44503986	     19.13451102	      0.23856082	    -30.34693735	     28.36337633	    -13.56287992	      0.49503430	      9.36045095	     27.09211453	     -9.44503986	    -43.91753215	     -1.89125493	     -2.35135837	     12.48748515	    -12.43547990	     -1.01989771	     39.97411089	     90.00000001	      0.00000000	      0.00000000	     -3.56394176	     -9.36513938	      6.93393751	     43.30833858	     90.00000001	      0.00000000	      0.00000000
      0.78000000	     13.34945789	      2.73685172	      2.11777103	     -1.45225628	      0.90726696	      0.27718791	    -23.67738434	     -1.50398715	    -38.21971690	     20.06088324	    -10.03629937	      0.35012846	     35.60670048	     33.26425715	     -9.44069635	     18.92592885	      0.63036865	    -29.92862179	     29.09361658	    -13.89944400	      0.50777940	      9.22223426	     27.05700893	     -9.44069635	    -43.90090548	     -2.22688815	     -2.39870460	     11.98312932	    -12.23547834	     -0.99824630	     39.78028957	     90.00000001	      0.00000000	      0.00000000	     -3.52760774	     -9.39999913	      6.96809986	     43.27004255	     90.00000001	      0.00000000	      0.00000000
      0.79000000	     13.60430230	      2.86531017	      2.58823233	     -1.44387852	      0.90809080	      0.27513422	    -25.00801874	     -1.43140752	    -37.97930964	     19.42471071	     -9.48100036	      0.33902516	     34.04465051	     32.62502312	     -9.31952915	     18.51083737	      1.07757427	    -27.58328386	     30.28441424	    -13.35456830	      0.52856274	      8.93741595	     23.38246097	     -9.31952915	    -44.06535636	     -2.31346913	     -2.66743523	     11.68885141	    -11.94522505	     -1.38816907	     39.32360046	     90.00000001	      0.00000000	      0.00000000	     -3.35660352	     -9.84833740	      8.07269889	     43.08135445	     90.00000001	      0.00000000	      0.00000000
